# xmcd CD database file generated by Grip 2.96
# 
# Track frame offsets:
#       150
#       7789
#       19987
#       34443
#       43475
#       57973
#       74700
#       82981
#       96933
#       110691
# 
# Disc length: 1801 seconds
# 
# Revision: 0
# Processed by: cddbd v1.4PL0 Copyright (c) Steve Scherf et al.
# Submitted via: Grip 2.96
# 
DISCID=8a07070a
DTITLE=Minipli 550 - Highspeed-Disco-Revue
DYEAR=1900
DGENRE=
TTITLE0=härter als slayer
TTITLE1=ha! you`re so funny
TTITLE2=berlin mitte boy
TTITLE3=bläde bleeder
TTITLE4=saturday fight beaver
TTITLE5=the teaches of peaches
TTITLE6=schneid dein minipli
TTITLE7=i hate people
TTITLE8=captain future is a woman
TTITLE9=bontempi
EXTD=
EXTT0=
EXTT1=
EXTT2=
EXTT3=
EXTT4=
EXTT5=
EXTT6=
EXTT7=
EXTT8=
EXTT9=
PLAYORDER=
